<?xml version="1.0" encoding="UTF-8" standalone="no"?>
<svg
   version="1.1"
   x="0px"
   y="0px"
   viewBox="0 0 100 125"
   enable-background="new 0 0 100 100"
   xml:space="preserve"
   id="svg2"
   sodipodi:docname="noun-agility-4494012.svg"
   inkscape:version="1.3 (0e150ed6c4, 2023-07-21)"
   xmlns:inkscape="http://www.inkscape.org/namespaces/inkscape"
   xmlns:sodipodi="http://sodipodi.sourceforge.net/DTD/sodipodi-0.dtd"
   xmlns="http://www.w3.org/2000/svg"
   xmlns:svg="http://www.w3.org/2000/svg"><defs
     id="defs2" /><sodipodi:namedview
     id="namedview2"
     pagecolor="#ffffff"
     bordercolor="#000000"
     borderopacity="0.25"
     inkscape:showpageshadow="2"
     inkscape:pageopacity="0.0"
     inkscape:pagecheckerboard="0"
     inkscape:deskcolor="#d1d1d1"
     inkscape:zoom="6.504"
     inkscape:cx="50.046125"
     inkscape:cy="42.5123"
     inkscape:window-width="1920"
     inkscape:window-height="1009"
     inkscape:window-x="1352"
     inkscape:window-y="-8"
     inkscape:window-maximized="1"
     inkscape:current-layer="svg2" /><g
     id="g1"
     sodipodi:insensitive="true"><polygon
       fill-rule="evenodd"
       clip-rule="evenodd"
       points="67,61.586 57.359,53.339 49.967,58.933 57.359,63.482 48.45,73.624 53.379,73.624 "
       id="polygon1"
       transform="matrix(1.5695694,0,0,2.2987554,-28.384174,-54.742171)" /><path
       fill-rule="evenodd"
       clip-rule="evenodd"
       d="M 91.775781,37.805724 80.159398,52.936133 70.796916,39.426347 c 0.06906,-0.255162 0.139693,-0.512621 0.136552,-0.816059 -0.03768,-6.585935 1.880345,-4.544639 4.95984,-4.245801 3.077925,0.303436 6.772691,-8.116906 8.412892,-14.429286 C 85.947969,13.622818 85.335838,6.1058866 77.740692,3.4002524 70.145544,0.6946165 68.094118,13.020543 67.478847,17.229564 c -0.62155,4.209021 -2.467364,5.425064 -2.467364,5.425064 h -5.134061 c -0.08475,0.255162 -0.11929,0.48044 -0.196196,0.731002 L 43.834853,0.5130148 29.682046,36.219584 34.44569,34.001284 43.834853,18.546751 51.219676,28.858969 0.68582165,121.06895 H 7.6876705 L 67.540059,51.621245 81.331866,70.861828 98.135675,34.454139 Z"
       id="path1"
       style="stroke-width:1.89949" /></g></svg>
